<svg width="512" height="512" viewBox="0 0 512 512" fill="none" xmlns="http://www.w3.org/2000/svg">
<path d="M416 336.001C404.108 335.996 392.364 338.644 381.624 343.752C370.885 348.86 361.42 356.3 353.92 365.529C339.03 358.887 322.162 358.197 306.779 363.6C291.397 369.003 278.666 380.09 271.2 394.585C264.56 392.315 257.5 391.545 250.527 392.329C243.554 393.113 236.842 395.433 230.872 399.121C223.907 387.434 213.386 378.282 200.848 373.001C188.31 367.72 174.412 366.588 161.184 369.769C153.851 359.297 144.092 350.757 132.741 344.876C121.39 338.996 108.784 335.951 96 336.001C74.7827 336.001 54.4344 344.429 39.4315 359.432C24.4285 374.435 16 394.784 16 416.001C16 437.218 24.4285 457.567 39.4315 472.569C54.4344 487.572 74.7827 496.001 96 496.001H416C437.217 496.001 457.566 487.572 472.569 472.569C487.571 457.567 496 437.218 496 416.001C496 394.784 487.571 374.435 472.569 359.432C457.566 344.429 437.217 336.001 416 336.001ZM416 480.001H96C84.8018 480.014 73.796 477.089 64.0822 471.518C54.3683 465.946 46.2863 457.923 40.6434 448.251C35.0006 438.578 31.9944 427.594 31.9253 416.396C31.8561 405.198 34.7263 394.178 40.2492 384.437C45.7721 374.695 53.7544 366.573 63.3987 360.882C73.043 355.191 84.0117 352.13 95.2093 352.005C106.407 351.88 117.441 354.695 127.21 360.169C136.979 365.643 145.141 373.585 150.88 383.201L154.208 388.801L160.352 386.681C172.032 382.61 184.835 383.223 196.072 388.392C207.31 393.561 216.107 402.883 220.616 414.401L225.048 425.601L233.648 417.185C238.544 412.353 244.883 409.251 251.702 408.35C258.522 407.449 265.449 408.798 271.432 412.193L279.672 416.769L282.872 407.889C285.231 401.236 289.032 395.188 294.003 390.177C298.974 385.167 304.993 381.318 311.626 378.906C318.26 376.494 325.345 375.58 332.373 376.229C339.402 376.877 346.2 379.072 352.28 382.657L358.76 386.465L362.96 380.233C369.134 371.072 377.574 363.665 387.46 358.733C397.345 353.801 408.339 351.512 419.371 352.088C430.404 352.664 441.099 356.087 450.417 362.022C459.734 367.957 467.357 376.203 472.543 385.958C477.728 395.713 480.301 406.644 480.01 417.687C479.719 428.731 476.574 439.511 470.882 448.979C465.189 458.447 457.143 466.28 447.525 471.716C437.908 477.152 427.047 480.006 416 480.001Z" fill="#F2F3F4"/>
<path d="M224 312C223.968 323.2 226.159 334.294 230.445 344.642C234.73 354.989 241.026 364.383 248.968 372.28L256 379.312L263.032 372.28C270.974 364.383 277.27 354.989 281.556 344.642C285.841 334.294 288.032 323.2 288 312C288 303.513 284.629 295.374 278.628 289.373C272.626 283.371 264.487 280 256 280C247.513 280 239.374 283.371 233.373 289.373C227.372 295.374 224 303.513 224 312ZM272 312C272.046 328.183 266.38 343.864 256 356.28C245.62 343.864 239.954 328.183 240 312C240 307.757 241.686 303.687 244.686 300.686C247.687 297.686 251.757 296 256 296C260.244 296 264.313 297.686 267.314 300.686C270.314 303.687 272 307.757 272 312Z" fill="#F2F3F4"/>
<path d="M259.152 16.6489L256 15.2969L252.848 16.6489C234.78 24.3771 219.381 37.2433 208.563 53.6492C197.745 70.055 191.986 89.2775 192 108.929V138.481C177.773 144.419 165.623 154.436 157.081 167.269C148.539 180.102 143.987 195.177 144 210.593V232.001H152V264.001H200V232.001H224V264.001H288V232.001H312V264.001H360V232.001H368V210.593C368.013 195.177 363.461 180.102 354.919 167.269C346.377 154.436 334.227 144.419 320 138.481V108.929C320.014 89.2775 314.255 70.055 303.437 53.6492C292.619 37.2433 277.22 24.3771 259.152 16.6489ZM160 210.593C159.988 199.494 162.95 188.594 168.578 179.027C174.205 169.46 182.293 161.575 192 156.193V216.001H160V210.593ZM184 248.001H168V232.001H184V248.001ZM272 248.001H240V232.001H272V248.001ZM304 216.001H208V108.929C207.991 93.001 212.495 77.3965 220.991 63.9232C229.486 50.4499 241.624 39.6591 256 32.8009C270.378 39.6603 282.518 50.4535 291.014 63.93C299.509 77.4064 304.012 93.0143 304 108.945V216.001ZM344 248.001H328V232.001H344V248.001ZM352 210.593V216.001H320V156.209C329.705 161.59 337.791 169.472 343.418 179.036C349.046 188.6 352.009 199.496 352 210.593Z" fill="#F2F3F4"/>
<path d="M152 304C152.035 316.358 156.942 328.205 165.656 336.968L176 347.312L186.344 336.968C195.058 328.205 199.965 316.358 200 304C200 297.635 197.471 291.53 192.971 287.029C188.47 282.529 182.365 280 176 280C169.635 280 163.53 282.529 159.029 287.029C154.529 291.53 152 297.635 152 304ZM184 304C183.979 311.633 181.129 318.987 176 324.64C170.871 318.987 168.021 311.633 168 304C168 301.878 168.843 299.843 170.343 298.343C171.843 296.843 173.878 296 176 296C178.122 296 180.157 296.843 181.657 298.343C183.157 299.843 184 301.878 184 304Z" fill="#F2F3F4"/>
<path d="M312 304C312.035 316.358 316.942 328.205 325.656 336.968L336 347.312L346.344 336.968C355.058 328.205 359.965 316.358 360 304C360 297.635 357.471 291.53 352.971 287.029C348.47 282.529 342.365 280 336 280C329.635 280 323.53 282.529 319.029 287.029C314.529 291.53 312 297.635 312 304ZM344 304C343.979 311.633 341.129 318.987 336 324.64C330.871 318.987 328.021 311.633 328 304C328 301.878 328.843 299.843 330.343 298.343C331.843 296.843 333.878 296 336 296C338.122 296 340.157 296.843 341.657 298.343C343.157 299.843 344 301.878 344 304Z" fill="#F2F3F4"/>
<path d="M256 80C249.671 80 243.484 81.8768 238.222 85.393C232.959 88.9092 228.858 93.9069 226.436 99.7541C224.014 105.601 223.38 112.035 224.615 118.243C225.85 124.45 228.897 130.152 233.373 134.627C237.848 139.103 243.55 142.15 249.757 143.385C255.965 144.62 262.399 143.986 268.246 141.564C274.093 139.142 279.091 135.041 282.607 129.778C286.123 124.516 288 118.329 288 112C288 103.513 284.629 95.3737 278.627 89.3726C272.626 83.3714 264.487 80 256 80ZM256 128C252.836 128 249.742 127.062 247.111 125.304C244.48 123.545 242.429 121.047 241.218 118.123C240.007 115.199 239.69 111.982 240.307 108.879C240.925 105.775 242.449 102.924 244.686 100.686C246.924 98.4487 249.775 96.9248 252.879 96.3074C255.982 95.6901 259.199 96.0069 262.123 97.2179C265.047 98.4289 267.545 100.48 269.304 103.111C271.062 105.742 272 108.835 272 112C272 116.243 270.314 120.313 267.314 123.314C264.313 126.314 260.243 128 256 128Z" fill="#F2F3F4"/>
</svg>
