<svg width="512" height="512" viewBox="0 0 512 512" fill="none" xmlns="http://www.w3.org/2000/svg">
<path d="M496 95.9997C495.987 85.3949 491.769 75.2282 484.27 67.7295C476.772 60.2308 466.605 56.0124 456 55.9997C453.901 55.9997 451.805 56.179 449.736 56.5357C444.857 47.8059 437.368 40.8217 428.32 36.5622C419.271 32.3027 409.117 30.9814 399.28 32.7835C389.442 34.5856 380.416 39.4208 373.465 46.6113C366.514 53.8018 361.988 62.9871 360.52 72.8797C357.03 73.7474 353.712 75.197 350.704 77.1677C344.326 63.0248 334.862 50.4897 323.007 40.4825C311.151 30.4752 297.205 23.2499 282.192 19.3369C267.179 15.4239 251.481 14.9226 236.249 17.8696C221.017 20.8167 206.638 27.1374 194.168 36.3677C185.507 27.9336 174.86 21.8189 163.211 18.589C151.561 15.359 139.286 15.118 127.518 17.8881C115.751 20.6583 104.872 26.3503 95.887 34.4379C86.9019 42.5255 80.1007 52.7478 76.112 64.1597C74.744 64.0557 73.368 63.9997 72 63.9997C57.1479 63.9997 42.9041 69.8997 32.402 80.4017C21.9 90.9038 16 105.148 16 120C16 134.852 21.9 149.096 32.402 159.598C42.9041 170.1 57.1479 176 72 176H88.472C90.4562 193.589 98.8433 209.833 112.035 221.636C125.226 233.439 142.299 239.976 160 240H248V318.792C245.392 317.624 242.721 316.601 240 315.728V288H192V315.728C187.531 317.134 183.197 318.936 179.048 321.112L159.432 301.496L125.496 335.432L145.112 355.048C142.933 359.195 141.132 363.53 139.728 368H112V384H16V400H112V416H139.728C141.132 420.47 142.933 424.804 145.112 428.952L125.496 448.568L159.432 482.504L179.048 462.888C183.196 465.066 187.53 466.868 192 468.272V496H240V468.272C244.47 466.868 248.804 465.066 252.952 462.888L272.568 482.504L299.464 455.608C301.112 456.683 302.819 457.666 304.576 458.552V480H352.576V458.552C355.287 457.271 357.89 455.773 360.36 454.072L378.928 464.792L402.928 423.192L384.384 412.488C384.512 410.976 384.576 409.48 384.576 407.984C384.576 406.488 384.512 404.992 384.384 403.48L390.4 400H496V384H397.856L378.928 351.2L360.36 361.92C357.89 360.219 355.287 358.721 352.576 357.44V336H305.936L306.504 335.432L272.568 301.496L264 310.064V240H376C388.063 240.013 399.883 236.613 410.095 230.193C420.307 223.773 428.495 214.594 433.711 203.718C438.928 192.841 440.961 180.711 439.575 168.728C438.189 156.745 433.441 145.399 425.88 136H456C466.605 135.987 476.772 131.769 484.27 124.27C491.769 116.771 495.987 106.605 496 95.9997ZM320.576 368.448V352H336.576V368.448L341.904 370.328C346.525 371.956 350.805 374.424 354.528 377.608L358.832 381.288L373.072 373.072L381.072 386.928L366.848 395.136L367.872 400.688C368.811 405.517 368.811 410.482 367.872 415.312L366.848 420.864L381.072 429.072L373.072 442.928L358.832 434.712L354.528 438.392C350.805 441.576 346.525 444.044 341.904 445.672L336.576 447.552V464H320.576V447.552L315.248 445.672C310.627 444.04 306.345 441.572 302.616 438.392L298.312 434.712L284.08 442.928L276.08 429.072L290.296 420.864L289.272 415.312C288.344 410.481 288.344 405.518 289.272 400.688L290.296 395.136L276.08 386.928L284.08 373.072L298.312 381.288L302.616 377.608C306.345 374.428 310.627 371.96 315.248 370.328L320.576 368.448ZM304.576 337.36V357.448C301.862 358.724 299.259 360.223 296.792 361.928L287.68 356.672C287.416 356.128 287.168 355.584 286.88 355.072L304.576 337.36ZM283.88 335.432L266.744 352.568L270.136 357.976C270.896 359.184 271.472 360.472 272.152 361.728L255.8 390.048C255.32 379.648 250.79 369.848 243.178 362.744C235.566 355.641 225.477 351.799 215.068 352.038C204.659 352.278 194.758 356.582 187.481 364.028C180.204 371.474 176.13 381.472 176.13 391.884C176.13 402.295 180.204 412.293 187.481 419.74C194.758 427.186 204.659 431.489 215.068 431.729C225.477 431.969 235.566 428.127 243.178 421.023C250.79 413.92 255.32 404.12 255.8 393.72L272.8 403.496C272.664 405.016 272.6 406.52 272.6 408C272.6 409.48 272.664 410.984 272.8 412.504L254.216 423.2L274.352 458.088L272.568 459.872L255.424 442.728L250.016 446.136C243.933 449.989 237.241 452.783 230.224 454.4L224 455.776V480H208V455.776L201.776 454.36C194.762 452.758 188.07 449.98 181.984 446.144L176.576 442.736L159.432 459.88L148.12 448.568L165.264 431.424L161.856 426.016C158.005 419.932 155.214 413.24 153.6 406.224L152.224 400H128V384H152.224L153.64 377.776C155.242 370.762 158.02 364.07 161.856 357.984L165.264 352.576L148.12 335.432L159.432 324.12L176.576 341.264L181.976 337.864C188.066 334.027 194.76 331.247 201.776 329.64L208 328.224V304H224V328.224L230.224 329.64C237.24 331.247 243.934 334.027 250.024 337.864L255.424 341.264L272.568 324.12L283.88 335.432ZM240 392C240 396.747 238.592 401.387 235.955 405.334C233.318 409.28 229.57 412.357 225.184 414.173C220.799 415.99 215.973 416.465 211.318 415.539C206.662 414.613 202.386 412.327 199.029 408.97C195.673 405.614 193.387 401.338 192.461 396.682C191.535 392.027 192.01 387.201 193.827 382.816C195.643 378.43 198.72 374.682 202.666 372.045C206.613 369.407 211.253 368 216 368C222.365 368 228.47 370.528 232.971 375.029C237.471 379.53 240 385.635 240 392ZM368 87.9997H376V79.9997C375.981 72.5071 378.599 65.2467 383.395 59.4899C388.191 53.7331 394.859 49.8469 402.231 48.5116C409.604 47.1763 417.211 48.4771 423.722 52.1863C430.232 55.8954 435.23 61.7765 437.84 68.7997L440.608 76.1517L448 73.5037C450.56 72.5437 453.266 72.0349 456 71.9997C462.365 71.9997 468.47 74.5283 472.971 79.0291C477.471 83.53 480 89.6345 480 95.9997C480 102.365 477.471 108.47 472.971 112.97C468.47 117.471 462.365 120 456 120H406.912C392.567 112.034 375.699 109.919 359.832 114.096C359.426 106.999 358.284 99.9642 356.424 93.1037C357.903 91.5085 359.694 90.2328 361.684 89.3551C363.675 88.4773 365.824 88.0161 368 87.9997ZM32 120C32.0127 109.395 36.2311 99.2282 43.7298 91.7295C51.2285 84.2308 61.3952 80.0124 72 79.9997C74.7603 80.0042 77.513 80.2883 80.216 80.8477L87.808 82.4477L89.6 74.8797C91.8666 65.379 96.5848 56.6387 103.284 49.5309C109.983 42.4231 118.429 37.1962 127.779 34.3718C137.129 31.5473 147.057 31.2241 156.57 33.4343C166.084 35.6444 174.853 40.3108 182 46.9677C168.583 60.5512 159.185 77.5821 154.848 96.1757C138.081 97.4102 122.271 104.464 110.153 116.118C98.0346 127.772 90.3686 143.294 88.48 160H72C61.3952 159.987 51.2285 155.769 43.7298 148.27C36.2311 140.771 32.0127 130.605 32 120ZM376 224H160C152.646 223.989 145.366 222.529 138.576 219.705C131.786 216.881 125.619 212.746 120.427 207.538C115.234 202.331 111.119 196.151 108.315 189.353C105.511 182.554 104.073 175.27 104.084 167.916C104.095 160.562 105.554 153.282 108.379 146.492C111.203 139.702 115.338 133.535 120.545 128.343C125.753 123.15 131.933 119.035 138.731 116.23C145.53 113.426 152.814 111.989 160.168 112L168.168 112.16L169.304 105.376C172.928 83.5872 184.618 63.9601 202.051 50.3962C219.483 36.8323 241.382 30.3248 263.392 32.1674C285.403 34.0099 305.915 44.0676 320.85 60.341C335.785 76.6144 344.049 97.9119 344 120C344 121.2 343.912 122.4 343.832 123.568L342.928 138.72L355.2 132.8C361.699 129.653 368.824 128.012 376.044 128C383.265 127.988 390.395 129.606 396.904 132.732C403.413 135.858 409.133 140.413 413.637 146.056C418.142 151.7 421.315 158.287 422.921 165.327C424.526 172.367 424.523 179.678 422.911 186.717C421.299 193.755 418.119 200.339 413.61 205.978C409.1 211.618 403.376 216.167 396.864 219.287C390.353 222.407 383.221 224.018 376 224Z" fill="#F2F3F4"/>
<path d="M328.576 432C333.323 432 337.963 430.592 341.91 427.955C345.856 425.318 348.933 421.57 350.749 417.184C352.566 412.799 353.041 407.973 352.115 403.318C351.189 398.662 348.903 394.386 345.547 391.029C342.19 387.673 337.914 385.387 333.258 384.461C328.603 383.535 323.777 384.01 319.392 385.827C315.006 387.643 311.258 390.72 308.621 394.666C305.984 398.613 304.576 403.253 304.576 408C304.576 414.365 307.105 420.47 311.605 424.971C316.106 429.471 322.211 432 328.576 432ZM328.576 400C330.158 400 331.705 400.469 333.021 401.348C334.336 402.227 335.361 403.477 335.967 404.939C336.572 406.4 336.731 408.009 336.422 409.561C336.114 411.113 335.352 412.538 334.233 413.657C333.114 414.776 331.689 415.538 330.137 415.846C328.585 416.155 326.976 415.997 325.514 415.391C324.053 414.786 322.803 413.76 321.924 412.445C321.045 411.129 320.576 409.582 320.576 408C320.576 405.878 321.419 403.843 322.919 402.343C324.419 400.843 326.454 400 328.576 400Z" fill="#F2F3F4"/>
</svg>
