<svg width="512" height="512" viewBox="0 0 512 512" fill="none" xmlns="http://www.w3.org/2000/svg">
<path d="M496 216C496.067 196.081 489.873 176.644 478.293 160.436C482.13 142.162 479.452 123.12 470.723 106.613C461.994 90.1062 447.764 77.1735 430.5 70.0571C419.325 55.6589 404.993 44.0186 388.609 36.0335C372.225 28.0483 354.226 23.9314 336 24.0001C330.836 24.007 325.678 24.343 320.557 25.0061C309.598 18.4623 296.925 15.3626 284.182 16.109C271.439 16.8554 259.215 21.4135 249.094 29.1921C235.979 23.5503 221.35 22.4711 207.549 26.1272C193.748 29.7832 181.572 37.9632 172.97 49.3581C168.705 48.461 164.359 48.006 160 48.0001C148.771 48.0308 137.745 51.0019 128.02 56.6177C118.296 62.2336 110.211 70.2982 104.572 80.0091C104.381 80.0091 104.191 80.0001 104 80.0001C87.0321 80.0192 70.7645 86.7681 58.7663 98.7663C46.7681 110.765 40.0192 127.032 40.0001 144C40.0001 145.961 40.1001 147.925 40.2751 149.877C29.8553 158.121 22.2614 169.405 18.5481 182.163C14.8349 194.92 15.1866 208.517 19.5545 221.065C23.9224 233.613 32.0897 244.49 42.9218 252.184C53.754 259.878 66.7134 264.008 80.0001 264C82.7081 264 85.4134 263.83 88.1001 263.491C95.5103 267.74 103.694 270.468 112.171 271.515C120.648 272.563 129.25 271.909 137.471 269.591C139.568 279.217 143.857 288.228 150.004 295.926C156.152 303.623 163.993 309.798 172.917 313.97C181.841 318.142 191.607 320.2 201.456 319.981C211.304 319.763 220.97 317.276 229.7 312.712C235.312 324.185 244.697 333.38 256.281 338.758C255.242 348.273 257.069 357.881 261.529 366.35C265.989 374.819 272.878 381.762 281.311 386.288L320.511 490.809C321.083 492.334 322.106 493.647 323.444 494.575C324.783 495.503 326.372 496 328 496H360C361.268 496 362.517 495.699 363.646 495.121C364.774 494.544 365.749 493.706 366.491 492.678C367.232 491.65 367.718 490.46 367.909 489.207C368.1 487.953 367.991 486.673 367.59 485.47L333.141 382.121C336.544 379.521 339.584 376.477 342.179 373.071C352.144 376.431 362.854 376.91 373.079 374.454C383.303 371.998 392.627 366.707 399.979 359.188C407.381 360.704 415.061 360.091 422.13 357.423C429.199 354.754 435.367 350.138 439.921 344.108C444.475 338.079 447.228 330.883 447.861 323.354C448.495 315.825 446.983 308.27 443.5 301.565C459.288 293.528 472.546 281.283 481.811 266.183C491.076 251.083 495.986 233.716 496 216ZM348.9 480H333.544L300.49 391.858C301.651 391.942 302.818 392 304 392C309.021 391.994 314.009 391.198 318.782 389.643L348.9 480ZM400 296V312C409.688 312.008 419.321 310.544 428.569 307.66C430.343 310.612 431.46 313.911 431.846 317.333C432.231 320.755 431.876 324.22 430.804 327.493C429.732 330.765 427.968 333.769 425.632 336.299C423.296 338.83 420.443 340.828 417.266 342.158C414.09 343.488 410.664 344.119 407.222 344.008C403.78 343.897 400.403 343.046 397.318 341.514C394.234 339.982 391.516 337.804 389.348 335.128C387.181 332.452 385.614 329.341 384.755 326.006L369.261 330C371.523 338.797 376.721 346.559 383.994 352C375.988 358.008 366.021 360.795 356.06 359.81C346.099 358.826 336.869 354.142 330.194 346.684L318.278 357.361C321.055 360.454 324.168 363.227 327.56 365.63C323.383 370.179 317.979 373.423 312 374.971V339.313L381.657 269.657C382.4 268.914 382.989 268.032 383.391 267.062C383.793 266.091 384 265.051 384 264V227.314L421.657 189.657C422.4 188.914 422.989 188.032 423.391 187.062C423.793 186.091 424 185.051 424 184V166.987C431.541 165.04 438.114 160.409 442.485 153.963C446.856 147.517 448.726 139.698 447.745 131.971C446.764 124.245 442.998 117.141 437.154 111.993C431.31 106.844 423.789 104.003 416 104.003C408.212 104.003 400.69 106.844 394.846 111.993C389.002 117.141 385.237 124.245 384.255 131.971C383.274 139.698 385.144 147.517 389.515 153.963C393.887 160.409 400.459 165.04 408 166.987V180.687L384 204.687V184C384 182.95 383.793 181.909 383.391 180.939C382.989 179.968 382.4 179.086 381.657 178.343L349.657 146.343C348.914 145.6 348.032 145.011 347.062 144.609C346.091 144.207 345.051 144 344 144H331.314L277.657 90.3431C276.914 89.6002 276.032 89.011 275.062 88.609C274.091 88.207 273.051 88.0001 272 88.0001H254.987C253.04 80.4588 248.409 73.8866 241.963 69.5153C235.517 65.144 227.698 63.2738 219.971 64.2552C212.245 65.2365 205.141 69.0022 199.993 74.8462C194.844 80.6903 192.003 88.2115 192.003 96.0001C192.003 103.789 194.844 111.31 199.993 117.154C205.141 122.998 212.245 126.764 219.971 127.745C227.698 128.726 235.517 126.856 241.963 122.485C248.409 118.114 253.04 111.541 254.987 104H268.687L308.687 144H152C150.95 144 149.909 144.207 148.939 144.609C147.968 145.011 147.086 145.6 146.343 146.343L120.243 172.443C113.526 168.481 105.595 167.104 97.9361 168.571C90.2769 170.039 83.416 174.249 78.6396 180.414C73.8632 186.578 71.4993 194.273 71.991 202.056C72.4827 209.839 75.7963 217.175 81.3106 222.69C86.8249 228.204 94.1612 231.518 101.944 232.009C109.727 232.501 117.422 230.137 123.586 225.361C129.751 220.584 133.962 213.723 135.429 206.064C136.896 198.405 135.52 190.474 131.557 183.757L155.313 160H292.686L252.686 200H238.986C237.039 192.459 232.408 185.887 225.962 181.515C219.516 177.144 211.697 175.274 203.97 176.255C196.244 177.237 189.14 181.002 183.992 186.846C178.843 192.69 176.002 200.212 176.002 208C176.002 215.789 178.843 223.31 183.992 229.154C189.14 234.998 196.244 238.764 203.97 239.745C211.697 240.726 219.516 238.856 225.962 234.485C232.408 230.114 237.039 223.541 238.986 216H256C257.051 216 258.091 215.793 259.062 215.391C260.032 214.989 260.914 214.4 261.657 213.657L315.314 160H340.687L368 187.313V260.687L328 300.687L312 284.687V270.987C319.541 269.04 326.114 264.409 330.485 257.963C334.856 251.517 336.726 243.698 335.745 235.971C334.764 228.245 330.998 221.141 325.154 215.993C319.31 210.844 311.789 208.003 304 208.003C296.212 208.003 288.69 210.844 282.846 215.993C277.002 221.141 273.237 228.245 272.255 235.971C271.274 243.698 273.144 251.517 277.515 257.963C281.887 264.409 288.459 269.04 296 270.987V288C296 289.051 296.207 290.091 296.609 291.062C297.011 292.032 297.6 292.914 298.343 293.657L316.686 312L298.343 330.343C297.6 331.086 297.011 331.968 296.609 332.939C296.207 333.909 296 334.95 296 336V374.987C291.914 373.927 288.077 372.07 284.711 369.523C281.344 366.976 278.514 363.789 276.383 360.145C274.252 356.501 272.862 352.471 272.293 348.288C271.724 344.105 271.986 339.851 273.066 335.77C273.592 333.787 273.336 331.677 272.35 329.877C271.365 328.078 269.725 326.725 267.771 326.1C261.887 324.208 256.522 320.979 252.095 316.666C247.668 312.353 244.3 307.073 242.255 301.241C240.21 295.408 239.543 289.182 240.307 283.048C241.071 276.915 243.245 271.042 246.659 265.89L233.335 257.033C227.232 266.206 223.984 276.982 224 288C224.002 291.059 224.252 294.113 224.746 297.132C217.283 301.648 208.723 304.024 200 304C190.464 304 181.145 301.16 173.23 295.842C165.314 290.524 159.163 282.969 155.559 274.141C151.955 265.312 151.062 255.61 152.995 246.273C154.927 236.935 159.597 228.384 166.409 221.711L155.209 210.283C143.563 221.622 136.71 236.998 136.065 253.24C129.164 255.685 121.796 256.522 114.522 255.686C107.249 254.851 100.262 252.365 94.0951 248.419C92.4034 247.332 90.3644 246.922 88.3841 247.271C81.2538 248.528 73.9314 248.156 66.9652 246.182C59.9991 244.209 53.5697 240.685 48.1585 235.874C42.7472 231.064 38.4944 225.091 35.7183 218.404C32.9422 211.717 31.7148 204.489 32.128 197.261C32.5413 190.032 34.5845 182.991 38.1046 176.664C41.6247 170.337 46.5305 164.888 52.4547 160.725C58.3789 156.563 65.168 153.795 72.3137 152.628C79.4594 151.461 86.7765 151.926 93.7171 153.987L98.2791 138.651C84.4082 134.53 69.5506 135.23 56.1281 140.635C56.8235 130.728 60.5749 121.281 66.8652 113.596C73.1555 105.911 81.6749 100.366 91.2489 97.7269C100.823 95.0873 110.98 95.4827 120.32 98.8585C129.66 102.234 137.722 108.424 143.396 116.575L156.519 107.42C148.182 95.4769 136.028 86.7279 122.056 82.6131C126.553 76.8342 132.307 72.155 138.881 68.9301C145.455 65.7052 152.678 64.0193 160 64.0001C164.772 64.0277 169.515 64.7489 174.08 66.1411C175.766 66.6518 177.572 66.5921 179.22 65.9712C180.869 65.3503 182.266 64.203 183.195 62.7071C187.484 55.7462 193.489 50.0029 200.634 46.0271C207.778 42.0513 215.824 39.9761 224 40.0001C234.327 40.0422 244.369 43.3944 252.651 49.5645C260.933 55.7346 267.018 64.3975 270.013 74.2811L285.349 69.7171C281.641 57.3528 274.269 46.4041 264.208 38.3171C270.487 34.7342 277.494 32.6155 284.706 32.1191C291.918 31.6226 299.149 32.7613 305.86 35.45C312.57 38.1387 318.587 42.3082 323.461 47.6472C328.335 52.9862 331.94 59.357 334.008 66.2841L349.344 61.7201C346.981 53.8129 343.094 46.4445 337.901 40.0301C361.59 40.3662 384.44 48.8559 402.601 64.0691C401.738 64.0381 400.874 64.0001 400 64.0001C394.021 63.9986 388.061 64.6634 382.229 65.9821L385.769 81.5821C400.357 78.2599 415.648 80.1523 428.986 86.9305C442.323 93.7087 452.866 104.945 458.782 118.687C464.698 132.429 465.613 147.809 461.37 162.156C457.126 176.503 447.991 188.91 435.552 197.223L444.452 210.518C455.938 202.84 465.242 192.321 471.458 179.983C477.598 192.183 480.514 205.751 479.928 219.396C479.343 233.041 475.275 246.309 468.113 257.938C460.95 269.566 450.931 279.169 439.009 285.831C427.087 292.494 413.658 295.994 400 296ZM416 152C412.836 152 409.742 151.062 407.111 149.304C404.48 147.546 402.429 145.047 401.218 142.123C400.007 139.199 399.69 135.982 400.308 132.879C400.925 129.775 402.449 126.924 404.686 124.686C406.924 122.449 409.775 120.925 412.879 120.308C415.982 119.69 419.199 120.007 422.123 121.218C425.047 122.429 427.546 124.48 429.304 127.111C431.062 129.742 432 132.836 432 136C431.995 140.242 430.308 144.309 427.308 147.308C424.309 150.308 420.242 151.995 416 152ZM240 96.0001C240 99.1646 239.062 102.258 237.304 104.889C235.546 107.52 233.047 109.571 230.123 110.782C227.199 111.993 223.982 112.31 220.879 111.693C217.775 111.075 214.924 109.551 212.686 107.314C210.449 105.076 208.925 102.225 208.308 99.1215C207.69 96.0178 208.007 92.8008 209.218 89.8772C210.429 86.9535 212.48 84.4547 215.111 82.6966C217.742 80.9385 220.836 80.0001 224 80.0001C228.242 80.0051 232.309 81.6925 235.308 84.6919C238.308 87.6914 239.995 91.7582 240 96.0001ZM120 200C120 203.165 119.062 206.258 117.304 208.889C115.546 211.52 113.047 213.571 110.123 214.782C107.199 215.993 103.982 216.31 100.879 215.693C97.775 215.075 94.924 213.551 92.6864 211.314C90.4488 209.076 88.9249 206.225 88.3075 203.122C87.6902 200.018 88.007 196.801 89.218 193.877C90.429 190.954 92.4798 188.455 95.111 186.697C97.7422 184.938 100.836 184 104 184C108.242 184.005 112.309 185.692 115.308 188.692C118.308 191.691 119.995 195.758 120 200ZM224 208C224 211.165 223.062 214.258 221.304 216.889C219.546 219.52 217.047 221.571 214.123 222.782C211.199 223.993 207.982 224.31 204.879 223.693C201.775 223.075 198.924 221.551 196.686 219.314C194.449 217.076 192.925 214.225 192.308 211.122C191.69 208.018 192.007 204.801 193.218 201.877C194.429 198.954 196.48 196.455 199.111 194.697C201.742 192.938 204.836 192 208 192C212.242 192.005 216.309 193.692 219.308 196.692C222.308 199.691 223.995 203.758 224 208ZM304 256C300.836 256 297.742 255.062 295.111 253.304C292.48 251.546 290.429 249.047 289.218 246.123C288.007 243.199 287.69 239.982 288.308 236.879C288.925 233.775 290.449 230.924 292.686 228.686C294.924 226.449 297.775 224.925 300.879 224.308C303.982 223.69 307.199 224.007 310.123 225.218C313.047 226.429 315.546 228.48 317.304 231.111C319.062 233.742 320 236.836 320 240C319.995 244.242 318.308 248.309 315.308 251.308C312.309 254.308 308.242 255.995 304 256Z" fill="#F2F3F4"/>
</svg>
